{"title":"Allie Haze - MyDadsHotGirlfriend","uid":10650399,"size":678480787,"categoryP":"porn","categoryS":"movie_clips","magnet":"?xt=urn:btih:46f377aafce7ce28e40de54df07ca515dad90940&amp;dn=Allie+Haze+-+MyDadsHotGirlfriend&amp;tr=udp%3A%2F%2Ftracker.openbittorrent.com%3A80&amp;tr=udp%3A%2F%2Fopen.demonii.com%3A1337&amp;tr=udp%3A%2F%2Ftracker.coppersurfer.tk%3A6969&amp;tr=udp%3A%2F%2Fexodus.desync.com%3A6969","seeders":3,"leechers":0,"uploader":"athklym","files":-1,"time":1406598075,"description":" &lt;a href=&quot;http://bayimg.com/GAPaBaAFI&quot; rel=&quot;nofollow&quot; target=&quot;_NEW&quot;&gt;http://bayimg.com/GAPaBaAFI&lt;/a&gt;\nAllie_Haze_MyDadsHotGirlfriend.mp4\nFormat : MPEG-4\nFormat profile : Base Media / Version 2\nCodec ID : mp42\nFile size : 647 MiB\nDuration : 28mn 12s\nOverall bit rate : 3 206 Kbps\nEncoded date : UTC 2010-11-03 21:46:29\nTagged date : UTC 2010-11-03 21:46:29\n\nVideo\nID : 1\nFormat : AVC\nFormat/Info : Advanced Video Codec\nFormat profile : &lt;a class=&quot;__cf_email__&quot; href=&quot;/cdn-cgi/l/email-protection&quot; data-cfemail=&quot;f6bb979f98b6bac5d8c6&quot;&gt;[email&amp;#160;protected]&lt;/a&gt;&lt;script cf-hash='f9e31' type=&quot;text/javascript&quot;&gt;\n/* &lt;![CDATA[ */!function(){try{var t=&quot;currentScript&quot;in document?document.currentScript:function(){for(var t=document.getElementsByTagName(&quot;script&quot;),e=t.length;e--;)if(t[e].getAttribute(&quot;cf-hash&quot;))return t[e]}();if(t&amp;&amp;t.previousSibling){var e,r,n,i,c=t.previousSibling,a=c.getAttribute(&quot;data-cfemail&quot;);if(a){for(e=&quot;&quot;,r=parseInt(a.substr(0,2),16),n=2;a.length-n;n+=2)i=parseInt(a.substr(n,2),16)^r,e+=String.fromCharCode(i);e=document.createTextNode(e),c.parentNode.replaceChild(e,c)}}}catch(u){}}();/* ]]&gt; */&lt;/script&gt;\nFormat settings, CABAC : No\nFormat settings, ReFrames : 2 frames\nCodec ID : avc1\nCodec ID/Info : Advanced Video Coding\nDuration : 28mn 12s\nBit rate : 3 000 Kbps\nWidth : 768 pixels\nHeight : 432 pixels\nDisplay aspect ratio : 16:9\nFrame rate mode : Constant\nFrame rate : 29.970 fps\nColor space : YUV\nChroma subsampling : 4:2:0\nBit depth : 8 bits\nScan type : Progressive\nBits/(Pixel*Frame) : 0.302\nStream size : 603 MiB (93%)\nLanguage : English\nEncoded date : UTC 2010-11-03 21:46:29\nTagged date : UTC 2010-11-03 21:46:29\n\nAudio\nID : 2\nFormat : AAC\nFormat/Info : Advanced Audio Codec\nFormat profile : LC\nCodec ID : 40\nDuration : 28mn 12s\nSource duration : 28mn 12s\nBit rate mode : Constant\nBit rate : 66.2 Kbps\nChannel(s) : 2 channels\nChannel positions : Front: L R\nSampling rate : 44.1 KHz\nCompression mode : Lossy\nStream size : 13.7 MiB (2%)\nSource stream size : 13.7 MiB (2%)\nLanguage : English\nEncoded date : UTC 2010-11-03 21:46:29\nTagged date : UTC 2010-11-03 21:46:29","torrent":{"xt":"urn:btih:46f377aafce7ce28e40de54df07ca515dad90940","amp;dn":"Allie+Haze+-+MyDadsHotGirlfriend","amp;tr":["udp%3A%2F%2Ftracker.openbittorrent.com%3A80","udp%3A%2F%2Fopen.demonii.com%3A1337","udp%3A%2F%2Ftracker.coppersurfer.tk%3A6969","udp%3A%2F%2Fexodus.desync.com%3A6969"],"infoHash":"46f377aafce7ce28e40de54df07ca515dad90940","infoHashBuffer":{"type":"Buffer","data":[70,243,119,170,252,231,206,40,228,13,229,77,240,124,165,21,218,217,9,64]},"announce":[],"urlList":[]}}